<svg xmlns="http://www.w3.org/2000/svg" fill-rule="evenodd" viewBox="0 0 100 100" focusable="false" width="100px" height="100px" fill="#ff4d4f" aria-hidden="true">
	<path d="M50 0c25 0 50 25 50 50S75 100 50 100 0 75 0 50 25 0 50 0zm14.2835 30.6719h-.0045l-.0089.0067L50 44.9498 35.7299 30.6786c-.0045-.0056-.0067-.0067-.0089-.0067a.0134.0134 90 00-.0078 0c-.0033 0-.0056.0011-.01.0056l-5.0246 5.0246a.0223.0223 90 00-.0056.01.0134.0134 90 000 .0078v.0022a.0301.0301 90 00.0067.0067L44.9498 50 30.6786 64.2701c-.0056.0045-.0067.0067-.0067.0089a.0134.0134 90 000 .0078c0 .0033.0011.0056.0056.01l5.0246 5.0246a.0223.0223 90 00.01.0056.0134.0134 90 00.0078 0c.0022 0 .0045-.0011.0089-.0056L50 55.0502l14.2701 14.2712c.0045.0045.0067.0056.0089.0056a.0134.0134 90 00.0078 0c.0033 0 .0056-.0011.01-.0056l5.0246-5.0246a.0223.0223 90 00.0056-.01.0134.0134 90 000-.0078v-.0022a.0301.0301 90 00-.0056-.0067L55.0502 50l14.2712-14.2701c.0045-.0045.0056-.0067.0056-.0089a.0134.0134 90 000-.0078c0-.0033-.0011-.0056-.0056-.01l-5.0246-5.0246a.0223.0223 90 00-.01-.0056.0134.0134 90 00-.0078 0z"/>
</svg>
